<?xml version="1.0" encoding="UTF-8" standalone="no"?>
<svg
   xmlns:dc="http://purl.org/dc/elements/1.1/"
   xmlns:cc="http://creativecommons.org/ns#"
   xmlns:rdf="http://www.w3.org/1999/02/22-rdf-syntax-ns#"
   xmlns:svg="http://www.w3.org/2000/svg"
   xmlns="http://www.w3.org/2000/svg"
   xmlns:sodipodi="http://sodipodi.sourceforge.net/DTD/sodipodi-0.dtd"
   xmlns:inkscape="http://www.inkscape.org/namespaces/inkscape"
   version="1.1"
   x="0px"
   y="0px"
   viewBox="0 0 48 48"
   style="enable-background:new 0 0 48 48;"
   xml:space="preserve"
   id="svg1768"
   sodipodi:docname="com.github.louis77.tuner.svg"
   inkscape:version="0.92.5 (2060ec1f9f, 2020-04-08)"><sodipodi:namedview
   pagecolor="#ffffff"
   bordercolor="#666666"
   borderopacity="1"
   objecttolerance="10"
   gridtolerance="10"
   guidetolerance="10"
   inkscape:pageopacity="0"
   inkscape:pageshadow="2"
   inkscape:window-width="640"
   inkscape:window-height="480"
   id="namedview99"
   showgrid="false"
   inkscape:zoom="4.9166667"
   inkscape:cx="39.316695"
   inkscape:cy="21.575922"
   inkscape:window-x="2448"
   inkscape:window-y="248"
   inkscape:window-maximized="0"
   inkscape:current-layer="svg1768" /><metadata
   id="metadata1774"><rdf:RDF><cc:Work
       rdf:about=""><dc:format>image/svg+xml</dc:format><dc:type
         rdf:resource="http://purl.org/dc/dcmitype/StillImage" /><dc:title /></cc:Work></rdf:RDF></metadata><defs
   id="defs1772" />
<style
   type="text/css"
   id="style1596">
	.st0{display:none;}
	.st1{display:inline;opacity:0.2;fill:none;stroke:#000000;stroke-width:9.375000e-02;enable-background:new    ;}
	.st2{opacity:0.3;fill:url(#SVGID_1_);enable-background:new    ;}
	.st3{opacity:0.3;fill:url(#SVGID_2_);enable-background:new    ;}
	.st4{opacity:0.3;fill:url(#SVGID_3_);enable-background:new    ;}
	.st5{fill:url(#SVGID_4_);stroke:#910E38;}
	.st6{fill:url(#SVGID_5_);}
	.st7{fill:url(#SVGID_6_);}
	.st8{fill:none;stroke:#ABACAE;stroke-width:0.6703;stroke-miterlimit:10;}
	.st9{fill:none;stroke:#DE3E80;stroke-width:0.8215;stroke-miterlimit:10;}
	.st10{fill:url(#SVGID_7_);}
	.st11{fill:#273445;}
	.st12{fill:url(#SVGID_8_);stroke:#ABACAE;stroke-width:0.1992;stroke-linecap:round;stroke-linejoin:round;}
	.st13{fill:#D4D4D4;stroke:#ABACAE;stroke-width:8.734830e-02;}
	.st14{fill:url(#SVGID_9_);}
	.st15{fill:#0E141F;}
	.st16{fill:url(#SVGID_10_);}
	.st17{fill:url(#SVGID_11_);}
	.st18{fill:url(#SVGID_12_);}
	.st19{fill:url(#SVGID_13_);}
	.st20{fill:url(#SVGID_14_);}
</style>
<g
   id="Layer_1"
   class="st0">
	<path
   class="st1"
   d="M48,35.3H0 M48,36.8H0 M48,38.3H0 M48,34.5H0 M48,36H0 M48,37.5H0 M48,30.8H0 M48,32.3H0 M48,33.8H0 M48,30H0    M48,31.5H0 M48,33H0 M48,26.3H0 M48,27.8H0 M48,29.3H0 M48,25.5H0 M48,27H0 M48,28.5H0 M48,21.8H0 M48,23.3H0 M48,24.8H0 M48,21H0    M48,22.5H0 M48,24H0 M48,17.3H0 M48,18.8H0 M48,20.3H0 M48,16.5H0 M48,18H0 M48,19.5H0 M48,14.3H0 M48,15.8H0 M48,13.5H0 M48,15H0    M48,9.8H0 M48,11.3H0 M48,12.8H0 M48,9H0 M48,10.5H0 M48,12H0 M48,5.3H0 M48,6.8H0 M48,8.3H0 M48,4.5H0 M48,6H0 M48,7.5H0 M48,0.8   H0 M48,2.3H0 M48,3.8H0 M48,1.5H0 M48,3H0 M48,43.5H0 M48,45H0 M48,46.5H0 M48,42.8H0 M48,44.3H0 M48,45.8H0 M48,39H0 M48,40.5H0    M48,42H0 M48,39.8H0 M48,41.3H0 M48,47.3H0 M12.8,48V0 M11.3,48V0 M9.8,48V0 M13.5,48V0 M12,48V0 M10.5,48V0 M17.3,48V0 M15.8,48   V0 M14.3,48V0 M18,48V0 M16.5,48V0 M15,48V0 M21.8,48V0 M20.3,48V0 M18.8,48V0 M22.5,48V0 M21,48V0 M19.5,48V0 M26.3,48V0 M24.8,48   V0 M23.3,48V0 M27,48V0 M25.5,48V0 M24,48V0 M30.8,48V0 M29.3,48V0 M27.8,48V0 M31.5,48V0 M30,48V0 M28.5,48V0 M33.8,48V0 M32.3,48   V0 M34.5,48V0 M33,48V0 M38.3,48V0 M36.8,48V0 M35.3,48V0 M39,48V0 M37.5,48V0 M36,48V0 M42.8,48V0 M41.3,48V0 M39.8,48V0 M43.5,48   V0 M42,48V0 M40.5,48V0 M47.3,48V0 M45.8,48V0 M44.3,48V0 M46.5,48V0 M45,48V0 M4.5,48V0 M3,48V0 M1.5,48V0 M5.3,48V0 M3.8,48V0    M2.3,48V0 M9,48V0 M7.5,48V0 M6,48V0 M8.3,48V0 M6.8,48V0 M0.8,48V0"
   id="path1598" />
</g>
<g
   id="Layer_2"
   transform="translate(0,-4)">
	<g
   id="g1624">
		
			<linearGradient
   id="SVGID_1_"
   gradientUnits="userSpaceOnUse"
   x1="4826.8174"
   y1="-16680.318"
   x2="4826.8174"
   y2="-16844.252"
   gradientTransform="matrix(0.1018,0,0,-0.02745,-467.37,-415.1248)">
			<stop
   offset="0"
   style="stop-color:#000000;stop-opacity:0"
   id="stop1601" />
			<stop
   offset="0.5"
   style="stop-color:#000000"
   id="stop1603" />
			<stop
   offset="1"
   style="stop-color:#000000;stop-opacity:0"
   id="stop1605" />
		</linearGradient>
		<path
   class="st2"
   d="m 7,42.8 h 34 v 4.5 H 7 Z"
   id="path1608"
   style="opacity:0.3;fill:url(#SVGID_1_);enable-background:new"
   inkscape:connector-curvature="0" />
		
			<radialGradient
   id="SVGID_2_"
   cx="8441.6689"
   cy="-16761.289"
   r="80.092201"
   gradientTransform="matrix(0.0598,0,0,-0.02745,-463.684,-415.1248)"
   gradientUnits="userSpaceOnUse">
			<stop
   offset="0"
   style="stop-color:#000000"
   id="stop1610" />
			<stop
   offset="1"
   style="stop-color:#000000;stop-opacity:0"
   id="stop1612" />
		</radialGradient>
		<path
   class="st3"
   d="m 41,42.8 v 4.5 c 2.1,0 5.2,-1.1 5.2,-2.4 0,-1.3 -2.4,-2.1 -5.2,-2.1 z"
   id="path1615"
   style="opacity:0.3;fill:url(#SVGID_2_);enable-background:new"
   inkscape:connector-curvature="0" />
		
			<radialGradient
   id="SVGID_3_"
   cx="-8514.8477"
   cy="-16761.289"
   r="80.0924"
   gradientTransform="matrix(-0.0598,0,0,-0.02745,-502.315,-415.1248)"
   gradientUnits="userSpaceOnUse">
			<stop
   offset="0"
   style="stop-color:#000000"
   id="stop1617" />
			<stop
   offset="1"
   style="stop-color:#000000;stop-opacity:0"
   id="stop1619" />
		</radialGradient>
		<path
   class="st4"
   d="m 7,42.8 v 4.5 c -2.1,0 -5.2,-1.1 -5.2,-2.4 0,-1.3 2.4,-2.1 5.2,-2.1 z"
   id="path1622"
   style="opacity:0.3;fill:url(#SVGID_3_);enable-background:new"
   inkscape:connector-curvature="0" />
	</g>
	
		<radialGradient
   id="SVGID_4_"
   cx="23.8629"
   cy="44.609699"
   r="64.345398"
   gradientTransform="matrix(0.9981,0.00640975,-0.00260896,0.4005,-0.05653071,25.9301)"
   gradientUnits="userSpaceOnUse">
		<stop
   offset="0"
   style="stop-color:#910E38"
   id="stop1626" />
		<stop
   offset="1"
   style="stop-color:#DE3E80"
   id="stop1628" />
	</radialGradient>
	<path
   class="st5"
   d="M 40.7,44.5 H 7.3 C 4.6,44.5 2.5,42.3 2.5,39.7 V 19.3 c 0,-2.7 2.2,-4.8 4.8,-4.8 h 33.3 c 2.7,0 4.8,2.2 4.8,4.8 v 20.3 c 0.1,2.7 -2.1,4.9 -4.7,4.9 z"
   id="path1631"
   style="fill:url(#SVGID_4_);stroke:#910e38"
   inkscape:connector-curvature="0" />
	
		<linearGradient
   id="SVGID_5_"
   gradientUnits="userSpaceOnUse"
   x1="24.7344"
   y1="30"
   x2="24.7344"
   y2="17.111"
   gradientTransform="matrix(1.0987,0,0,1,-3.1753,0)">
		<stop
   offset="0"
   style="stop-color:#DE3E80"
   id="stop1633" />
		<stop
   offset="1"
   style="stop-color:#910E38"
   id="stop1635" />
	</linearGradient>
	<path
   class="st6"
   d="m 5,26.5 v -6 C 5,18.6 6.6,17 8.5,17 h 31.1 c 1.9,0 3.5,1.6 3.5,3.5 v 6 c 0,1.9 -1.6,3.5 -3.5,3.5 H 8.5 C 6.6,30 5,28.4 5,26.5 Z"
   id="path1638"
   style="fill:url(#SVGID_5_)"
   inkscape:connector-curvature="0" />
	<linearGradient
   id="SVGID_6_"
   gradientUnits="userSpaceOnUse"
   x1="24"
   y1="28.5"
   x2="24"
   y2="18.75">
		<stop
   offset="0.6869"
   style="stop-color:#FAFAFA"
   id="stop1640" />
		<stop
   offset="1"
   style="stop-color:#ABACAE"
   id="stop1642" />
	</linearGradient>
	<path
   class="st7"
   d="M 39.4,28.5 H 8.6 c -1.2,0 -2.2,-1 -2.2,-2.2 V 21 c 0,-1.2 1,-2.2 2.2,-2.2 h 30.8 c 1.2,0 2.2,1 2.2,2.2 v 5.3 c 0,1.2 -1,2.2 -2.2,2.2 z"
   id="path1645"
   style="fill:url(#SVGID_6_)"
   inkscape:connector-curvature="0" />
	<g
   id="g1675">
		<line
   class="st8"
   x1="8.6999998"
   y1="20"
   x2="8.6999998"
   y2="27"
   id="line1647"
   style="fill:none;stroke:#abacae;stroke-width:0.67030001;stroke-miterlimit:10" />
		<line
   class="st8"
   x1="11.7"
   y1="21"
   x2="11.7"
   y2="26"
   id="line1649"
   style="fill:none;stroke:#abacae;stroke-width:0.67030001;stroke-miterlimit:10" />
		<line
   class="st8"
   x1="13.7"
   y1="21"
   x2="13.7"
   y2="26"
   id="line1651"
   style="fill:none;stroke:#abacae;stroke-width:0.67030001;stroke-miterlimit:10" />
		<line
   class="st8"
   x1="16.700001"
   y1="20"
   x2="16.700001"
   y2="27"
   id="line1653"
   style="fill:none;stroke:#abacae;stroke-width:0.67030001;stroke-miterlimit:10" />
		<line
   class="st8"
   x1="18.700001"
   y1="21"
   x2="18.700001"
   y2="26"
   id="line1655"
   style="fill:none;stroke:#abacae;stroke-width:0.67030001;stroke-miterlimit:10" />
		<line
   class="st8"
   x1="21.700001"
   y1="21"
   x2="21.700001"
   y2="26"
   id="line1657"
   style="fill:none;stroke:#abacae;stroke-width:0.67030001;stroke-miterlimit:10" />
		<line
   class="st8"
   x1="24.700001"
   y1="20"
   x2="24.700001"
   y2="27"
   id="line1659"
   style="fill:none;stroke:#abacae;stroke-width:0.67030001;stroke-miterlimit:10" />
		<line
   class="st8"
   x1="26.700001"
   y1="21"
   x2="26.700001"
   y2="26"
   id="line1661"
   style="fill:none;stroke:#abacae;stroke-width:0.67030001;stroke-miterlimit:10" />
		<line
   class="st8"
   x1="29.700001"
   y1="21"
   x2="29.700001"
   y2="26"
   id="line1663"
   style="fill:none;stroke:#abacae;stroke-width:0.67030001;stroke-miterlimit:10" />
		<line
   class="st8"
   x1="31.700001"
   y1="20"
   x2="31.700001"
   y2="27"
   id="line1665"
   style="fill:none;stroke:#abacae;stroke-width:0.67030001;stroke-miterlimit:10" />
		<line
   class="st8"
   x1="39.700001"
   y1="20"
   x2="39.700001"
   y2="27"
   id="line1667"
   style="fill:none;stroke:#abacae;stroke-width:0.67030001;stroke-miterlimit:10" />
		<line
   class="st8"
   x1="34.700001"
   y1="21"
   x2="34.700001"
   y2="26"
   id="line1669"
   style="fill:none;stroke:#abacae;stroke-width:0.67030001;stroke-miterlimit:10" />
		<line
   class="st8"
   x1="36.700001"
   y1="21"
   x2="36.700001"
   y2="26"
   id="line1671"
   style="fill:none;stroke:#abacae;stroke-width:0.67030001;stroke-miterlimit:10" />
		<line
   class="st9"
   x1="20.700001"
   y1="18.799999"
   x2="20.700001"
   y2="28.799999"
   id="line1673"
   style="fill:none;stroke:#de3e80;stroke-width:0.8215;stroke-miterlimit:10" />
	</g>
	<g
   id="g1695">
		
			<radialGradient
   id="SVGID_7_"
   cx="23.4902"
   cy="40.9716"
   r="10.615"
   gradientTransform="matrix(1.0041,0,0,0.757,0.2355,9.4441)"
   gradientUnits="userSpaceOnUse">
			<stop
   offset="0"
   style="stop-color:#FAFAFA"
   id="stop1677" />
			<stop
   offset="1"
   style="stop-color:#D4D4D4"
   id="stop1679" />
		</radialGradient>
		<circle
   class="st10"
   cx="23.5"
   cy="36.5"
   r="6.5"
   id="circle1682"
   style="fill:url(#SVGID_7_)" />
		<circle
   class="st11"
   cx="23.5"
   cy="36.5"
   r="4.5"
   id="circle1684"
   style="fill:#273445" />
		
			<radialGradient
   id="SVGID_8_"
   cx="23.1926"
   cy="37.640598"
   r="7.6264"
   gradientTransform="matrix(0.9834,0,0,0.5716,0.7364,16.8672)"
   gradientUnits="userSpaceOnUse">
			<stop
   offset="0"
   style="stop-color:#7E8087"
   id="stop1686" />
			<stop
   offset="1"
   style="stop-color:#FAFAFA"
   id="stop1688" />
		</radialGradient>
		<circle
   class="st12"
   cx="23.5"
   cy="36.5"
   r="3.5999999"
   id="circle1691"
   style="fill:url(#SVGID_8_);stroke:#abacae;stroke-width:0.1992;stroke-linecap:round;stroke-linejoin:round" />
		<path
   class="st13"
   d="m 23.5,35 c -0.1,0 -0.2,-0.1 -0.2,-0.2 v -1.5 c 0,-0.1 0.1,-0.2 0.2,-0.2 0.1,0 0.2,0.1 0.2,0.2 v 1.5 c 0,0.1 -0.1,0.2 -0.2,0.2 z"
   id="path1693"
   inkscape:connector-curvature="0" />
	</g>
	<g
   id="g1730">
		<g
   id="g1706">
			<linearGradient
   id="SVGID_9_"
   gradientUnits="userSpaceOnUse"
   x1="37.486198"
   y1="35.458302"
   x2="37.486198"
   y2="32.5">
				<stop
   offset="0"
   style="stop-color:#DE3E80"
   id="stop1697" />
				<stop
   offset="1"
   style="stop-color:#910E38"
   id="stop1699" />
			</linearGradient>
			<path
   class="st14"
   d="m 33.4,35.5 c -0.8,0 -1.5,-0.8 -1.4,-1.8 0.1,-0.7 0.8,-1.2 1.4,-1.2 h 7.9 c 0.7,0 1.3,0.5 1.4,1.2 0.2,0.9 -0.5,1.8 -1.4,1.8 z"
   id="path1702"
   style="fill:url(#SVGID_9_)"
   inkscape:connector-curvature="0" />
			<path
   class="st15"
   d="M 41.1,34.9 H 33.9 C 33.4,34.9 33,34.5 33,34 V 33.9 C 33,33.4 33.4,33 33.9,33 h 7.2 c 0.5,0 0.9,0.4 0.9,0.9 V 34 c 0,0.5 -0.4,0.9 -0.9,0.9 z"
   id="path1704"
   inkscape:connector-curvature="0"
   style="fill:#0e141f" />
		</g>
		<g
   id="g1717">
			<linearGradient
   id="SVGID_10_"
   gradientUnits="userSpaceOnUse"
   x1="37.953098"
   y1="38.5312"
   x2="37.953098"
   y2="35.5">
				<stop
   offset="0"
   style="stop-color:#DE3E80"
   id="stop1708" />
				<stop
   offset="1"
   style="stop-color:#910E38"
   id="stop1710" />
			</linearGradient>
			<path
   class="st16"
   d="m 34.3,38.5 c -0.8,0 -1.5,-0.8 -1.3,-1.8 0.1,-0.7 0.7,-1.2 1.4,-1.2 h 7.2 c 0.7,0 1.3,0.5 1.4,1.2 0.2,1 -0.5,1.8 -1.3,1.8 z"
   id="path1713"
   style="fill:url(#SVGID_10_)"
   inkscape:connector-curvature="0" />
			<path
   class="st15"
   d="M 41.2,37.9 H 34.9 C 34.4,37.9 34,37.5 34,37 V 36.9 C 34,36.4 34.4,36 34.9,36 h 6.3 c 0.5,0 0.9,0.4 0.9,0.9 V 37 c -0.1,0.5 -0.5,0.9 -0.9,0.9 z"
   id="path1715"
   inkscape:connector-curvature="0"
   style="fill:#0e141f" />
		</g>
		<g
   id="g1728">
			<linearGradient
   id="SVGID_11_"
   gradientUnits="userSpaceOnUse"
   x1="37.5"
   y1="41.5882"
   x2="37.5"
   y2="38.5312">
				<stop
   offset="0"
   style="stop-color:#DE3E80"
   id="stop1719" />
				<stop
   offset="1"
   style="stop-color:#910E38"
   id="stop1721" />
			</linearGradient>
			<path
   class="st17"
   d="m 33.4,41.6 c -0.9,0 -1.5,-0.8 -1.4,-1.8 0.1,-0.7 0.8,-1.2 1.4,-1.2 h 8 c 0.7,0 1.3,0.5 1.4,1.2 0.2,1 -0.5,1.8 -1.4,1.8 z"
   id="path1724"
   style="fill:url(#SVGID_11_)"
   inkscape:connector-curvature="0" />
			<path
   class="st15"
   d="M 41.1,40.9 H 33.9 C 33.4,40.9 33,40.5 33,40 V 39.9 C 33,39.4 33.4,39 33.9,39 h 7.2 c 0.5,0 0.9,0.4 0.9,0.9 V 40 c 0,0.5 -0.4,0.9 -0.9,0.9 z"
   id="path1726"
   inkscape:connector-curvature="0"
   style="fill:#0e141f" />
		</g>
	</g>
	<g
   id="g1765">
		<g
   id="g1741">
			
				<linearGradient
   id="SVGID_12_"
   gradientUnits="userSpaceOnUse"
   x1="64.555099"
   y1="35.458302"
   x2="64.555099"
   y2="32.5"
   gradientTransform="matrix(-1,0,0,1,75,0)">
				<stop
   offset="0"
   style="stop-color:#DE3E80"
   id="stop1732" />
				<stop
   offset="1"
   style="stop-color:#910E38"
   id="stop1734" />
			</linearGradient>
			<path
   class="st18"
   d="m 14.5,35.5 c 0.8,0 1.5,-0.8 1.4,-1.8 -0.1,-0.7 -0.8,-1.2 -1.4,-1.2 h -8 c -0.7,0 -1.3,0.5 -1.4,1.2 -0.2,0.9 0.5,1.8 1.4,1.8 z"
   id="path1737"
   style="fill:url(#SVGID_12_)"
   inkscape:connector-curvature="0" />
			<path
   class="st15"
   d="M 6.8,34.9 H 14 c 0.5,0 0.9,-0.4 0.9,-0.9 V 33.9 C 14.9,33.4 14.5,33 14,33 H 6.8 C 6.3,33 5.9,33.4 5.9,33.9 V 34 c 0,0.5 0.4,0.9 0.9,0.9 z"
   id="path1739"
   inkscape:connector-curvature="0"
   style="fill:#0e141f" />
		</g>
		<g
   id="g1752">
			
				<linearGradient
   id="SVGID_13_"
   gradientUnits="userSpaceOnUse"
   x1="65.022102"
   y1="38.5312"
   x2="65.022102"
   y2="35.5"
   gradientTransform="matrix(-1,0,0,1,75,0)">
				<stop
   offset="0"
   style="stop-color:#DE3E80"
   id="stop1743" />
				<stop
   offset="1"
   style="stop-color:#910E38"
   id="stop1745" />
			</linearGradient>
			<path
   class="st19"
   d="m 13.6,38.5 c 0.8,0 1.5,-0.8 1.3,-1.8 C 14.8,36 14.2,35.5 13.5,35.5 H 6.4 c -0.7,0 -1.3,0.5 -1.4,1.2 -0.2,1 0.5,1.8 1.3,1.8 z"
   id="path1748"
   style="fill:url(#SVGID_13_)"
   inkscape:connector-curvature="0" />
			<path
   class="st15"
   d="m 6.8,37.9 h 6.3 C 13.6,37.9 14,37.5 14,37 V 36.9 C 14,36.4 13.6,36 13.1,36 H 6.8 C 6.3,36 5.9,36.4 5.9,36.9 V 37 c 0,0.5 0.4,0.9 0.9,0.9 z"
   id="path1750"
   inkscape:connector-curvature="0"
   style="fill:#0e141f" />
		</g>
		<g
   id="g1763">
			
				<linearGradient
   id="SVGID_14_"
   gradientUnits="userSpaceOnUse"
   x1="64.569"
   y1="41.5882"
   x2="64.569"
   y2="38.5312"
   gradientTransform="matrix(-1,0,0,1,75,0)">
				<stop
   offset="0"
   style="stop-color:#DE3E80"
   id="stop1754" />
				<stop
   offset="1"
   style="stop-color:#910E38"
   id="stop1756" />
			</linearGradient>
			<path
   class="st20"
   d="m 14.5,41.6 c 0.9,0 1.5,-0.8 1.4,-1.8 -0.1,-0.7 -0.8,-1.2 -1.4,-1.2 h -8 c -0.7,0 -1.3,0.5 -1.4,1.2 -0.2,1 0.5,1.8 1.4,1.8 z"
   id="path1759"
   style="fill:url(#SVGID_14_)"
   inkscape:connector-curvature="0" />
			<path
   class="st15"
   d="M 6.9,40.9 H 14 c 0.5,0 0.9,-0.4 0.9,-0.9 V 39.9 C 14.9,39.4 14.5,39 14,39 H 6.9 C 6.4,39 6,39.4 6,39.9 V 40 c 0,0.5 0.4,0.9 0.9,0.9 z"
   id="path1761"
   inkscape:connector-curvature="0"
   style="fill:#0e141f" />
		</g>
	</g>
</g>
</svg>