<?xml version="1.0" encoding="UTF-8" standalone="no"?>
<svg
   xmlns:dc="http://purl.org/dc/elements/1.1/"
   xmlns:cc="http://creativecommons.org/ns#"
   xmlns:rdf="http://www.w3.org/1999/02/22-rdf-syntax-ns#"
   xmlns:svg="http://www.w3.org/2000/svg"
   xmlns="http://www.w3.org/2000/svg"
   version="1.1"
   x="0px"
   y="0px"
   viewBox="0 0 24 24"
   style="enable-background:new 0 0 24 24;"
   xml:space="preserve"
   id="svg3009"><metadata
   id="metadata3015"><rdf:RDF><cc:Work
       rdf:about=""><dc:format>image/svg+xml</dc:format><dc:type
         rdf:resource="http://purl.org/dc/dcmitype/StillImage" /><dc:title></dc:title></cc:Work></rdf:RDF></metadata><defs
   id="defs3013" />
<style
   type="text/css"
   id="style2891">
	.st0{display:none;}
	.st1{display:inline;opacity:0.2;fill:none;stroke:#000000;stroke-width:4.687500e-02;enable-background:new    ;}
	.st2{opacity:0.3;fill:url(#SVGID_1_);enable-background:new    ;}
	.st3{opacity:0.3;fill:url(#SVGID_2_);enable-background:new    ;}
	.st4{opacity:0.3;fill:url(#SVGID_3_);enable-background:new    ;}
	.st5{fill:url(#SVGID_4_);stroke:#910E38;stroke-width:0.9708;}
	.st6{fill:url(#SVGID_5_);}
	.st7{fill:url(#SVGID_6_);}
	.st8{fill:none;stroke:#7E8087;stroke-width:0.3352;stroke-miterlimit:10;}
	.st9{fill:none;stroke:#DE3E80;stroke-width:0.4108;stroke-miterlimit:10;}
	.st10{fill:url(#SVGID_7_);}
	.st11{fill:#273445;stroke:#DE3E80;stroke-width:0.1825;stroke-linecap:round;stroke-linejoin:round;}
	.st12{fill:url(#SVGID_8_);stroke:#ABACAE;stroke-width:0.1362;stroke-linecap:round;stroke-linejoin:round;}
	.st13{fill:#D4D4D4;stroke:#ABACAE;stroke-width:5.329575e-02;}
	.st14{fill:#0E141F;}
</style>
<g
   id="Layer_1"
   class="st0">
	<path
   class="st1"
   d="M24,17.6H0 M24,18.4H0 M24,19.1H0 M24,17.3H0 M24,18H0 M24,18.8H0 M24,15.4H0 M24,16.1H0 M24,16.9H0 M24,15H0    M24,15.8H0 M24,16.5H0 M24,13.1H0 M24,13.9H0 M24,14.6H0 M24,12.8H0 M24,13.5H0 M24,14.3H0 M24,10.9H0 M24,11.6H0 M24,12.4H0    M24,10.5H0 M24,11.3H0 M24,12H0 M24,8.6H0 M24,9.4H0 M24,10.1H0 M24,8.3H0 M24,9H0 M24,9.8H0 M24,7.1H0 M24,7.9H0 M24,6.8H0    M24,7.5H0 M24,4.9H0 M24,5.6H0 M24,6.4H0 M24,4.5H0 M24,5.3H0 M24,6H0 M24,2.6H0 M24,3.4H0 M24,4.1H0 M24,2.3H0 M24,3H0 M24,3.8H0    M24,0.4H0 M24,1.1H0 M24,1.9H0 M24,0.8H0 M24,1.5H0 M24,21.8H0 M24,22.5H0 M24,23.3H0 M24,21.4H0 M24,22.1H0 M24,22.9H0 M24,19.5   H0 M24,20.3H0 M24,21H0 M24,19.9H0 M24,20.6H0 M24,23.6H0 M6.4,24V0 M5.6,24V0 M4.9,24V0 M6.8,24V0 M6,24V0 M5.3,24V0 M8.6,24V0    M7.9,24V0 M7.1,24V0 M9,24V0 M8.3,24V0 M7.5,24V0 M10.9,24V0 M10.1,24V0 M9.4,24V0 M11.3,24V0 M10.5,24V0 M9.8,24V0 M13.1,24V0    M12.4,24V0 M11.6,24V0 M13.5,24V0 M12.8,24V0 M12,24V0 M15.4,24V0 M14.6,24V0 M13.9,24V0 M15.8,24V0 M15,24V0 M14.3,24V0 M16.9,24   V0 M16.1,24V0 M17.3,24V0 M16.5,24V0 M19.1,24V0 M18.4,24V0 M17.6,24V0 M19.5,24V0 M18.8,24V0 M18,24V0 M21.4,24V0 M20.6,24V0    M19.9,24V0 M21.8,24V0 M21,24V0 M20.3,24V0 M23.6,24V0 M22.9,24V0 M22.1,24V0 M23.3,24V0 M22.5,24V0 M2.3,24V0 M1.5,24V0 M0.8,24   V0 M2.6,24V0 M1.9,24V0 M1.1,24V0 M4.5,24V0 M3.8,24V0 M3,24V0 M4.1,24V0 M3.4,24V0 M0.4,24V0"
   id="path2893" />
</g>
<g
   id="Layer_2">
	<g
   id="g2919">
		
			<linearGradient
   id="SVGID_1_"
   gradientUnits="userSpaceOnUse"
   x1="4814.8174"
   y1="-15901.6299"
   x2="4814.8174"
   y2="-15983.5967"
   gradientTransform="matrix(0.1018 0 0 -2.745000e-02 -478.1484 -415.1248)">
			<stop
   offset="0"
   style="stop-color:#000000;stop-opacity:0"
   id="stop2896" />
			<stop
   offset="0.5"
   style="stop-color:#000000"
   id="stop2898" />
			<stop
   offset="1"
   style="stop-color:#000000;stop-opacity:0"
   id="stop2900" />
		</linearGradient>
		<path
   class="st2"
   d="M3.6,21.4h16.9v2.2H3.6V21.4z"
   id="path2903" />
		
			<radialGradient
   id="SVGID_2_"
   cx="8285.415"
   cy="-15939.3223"
   r="40.5344"
   gradientTransform="matrix(5.980000e-02 0 0 -2.745000e-02 -474.9664 -415.1248)"
   gradientUnits="userSpaceOnUse">
			<stop
   offset="0"
   style="stop-color:#000000"
   id="stop2905" />
			<stop
   offset="1"
   style="stop-color:#000000;stop-opacity:0"
   id="stop2907" />
		</radialGradient>
		<path
   class="st3"
   d="M20.4,21.3v2.3c1.1,0,2.6-0.5,2.6-1.2S21.8,21.3,20.4,21.3z"
   id="path2910" />
		
			<radialGradient
   id="SVGID_3_"
   cx="-8671.0957"
   cy="-15939.3223"
   r="40.5344"
   gradientTransform="matrix(-5.980000e-02 0 0 -2.745000e-02 -515.0326 -415.1248)"
   gradientUnits="userSpaceOnUse">
			<stop
   offset="0"
   style="stop-color:#000000"
   id="stop2912" />
			<stop
   offset="1"
   style="stop-color:#000000;stop-opacity:0"
   id="stop2914" />
		</radialGradient>
		<path
   class="st4"
   d="M3.6,21.3v2.3c-1.1,0-2.6-0.5-2.6-1.2S2.2,21.3,3.6,21.3z"
   id="path2917" />
	</g>
	
		<radialGradient
   id="SVGID_4_"
   cx="11.3762"
   cy="22.5582"
   r="32.8741"
   gradientTransform="matrix(0.9552 6.409753e-03 -2.496714e-03 0.4005 1.0284 13.1172)"
   gradientUnits="userSpaceOnUse">
		<stop
   offset="2.933213e-03"
   style="stop-color:#910E38"
   id="stop2921" />
		<stop
   offset="1"
   style="stop-color:#DE3E80"
   id="stop2923" />
	</radialGradient>
	<path
   class="st5"
   d="M20.2,22.5H3.9c-1.3,0-2.4-1.1-2.4-2.4V9.9c0-1.3,1.1-2.4,2.4-2.4h16.3c1.3,0,2.4,1.1,2.4,2.4v10.3   C22.5,21.4,21.5,22.5,20.2,22.5z"
   id="path2926" />
	
		<linearGradient
   id="SVGID_5_"
   gradientUnits="userSpaceOnUse"
   x1="12.7344"
   y1="15"
   x2="12.7344"
   y2="8.1317"
   gradientTransform="matrix(1.0987 0 0 1 -1.9911 0)">
		<stop
   offset="0"
   style="stop-color:#DE3E80"
   id="stop2928" />
		<stop
   offset="1"
   style="stop-color:#910E38"
   id="stop2930" />
	</linearGradient>
	<path
   class="st6"
   d="M2,13.2V10c0-1,0.8-1.8,1.8-1.8h16.3c1,0,1.8,0.8,1.8,1.8v3.2c0,1-0.8,1.8-1.8,1.8H3.9C2.9,15,2,14.2,2,13.2z"
   id="path2933" />
	<linearGradient
   id="SVGID_6_"
   gradientUnits="userSpaceOnUse"
   x1="12"
   y1="14.25"
   x2="12"
   y2="9.375">
		<stop
   offset="0.6869"
   style="stop-color:#FAFAFA"
   id="stop2935" />
		<stop
   offset="1"
   style="stop-color:#ABACAE"
   id="stop2937" />
	</linearGradient>
	<path
   class="st7"
   d="M19.7,14.2H4.3c-0.6,0-1.1-0.5-1.1-1.1v-2.7c0-0.6,0.5-1.1,1.1-1.1h15.4c0.6,0,1.1,0.5,1.1,1.1v2.7   C20.8,13.8,20.3,14.2,19.7,14.2z"
   id="path2940" />
	<g
   id="g2962">
		<line
   class="st8"
   x1="4.5"
   y1="10.1"
   x2="4.5"
   y2="14"
   id="line2942" />
		<line
   class="st8"
   x1="6.5"
   y1="10.7"
   x2="6.5"
   y2="12.8"
   id="line2944" />
		<line
   class="st8"
   x1="8.5"
   y1="10.1"
   x2="8.5"
   y2="14"
   id="line2946" />
		<line
   class="st8"
   x1="10.7"
   y1="10.7"
   x2="10.7"
   y2="12.8"
   id="line2948" />
		<line
   class="st8"
   x1="11.5"
   y1="10.1"
   x2="11.5"
   y2="14"
   id="line2950" />
		<line
   class="st8"
   x1="13.5"
   y1="10.7"
   x2="13.5"
   y2="12.8"
   id="line2952" />
		<line
   class="st8"
   x1="15.5"
   y1="10"
   x2="15.5"
   y2="14"
   id="line2954" />
		<line
   class="st8"
   x1="19.5"
   y1="10"
   x2="19.5"
   y2="13.9"
   id="line2956" />
		<line
   class="st8"
   x1="17.5"
   y1="10.7"
   x2="17.5"
   y2="12.8"
   id="line2958" />
		<line
   class="st9"
   x1="10.5"
   y1="9"
   x2="10.5"
   y2="13.9"
   id="line2960" />
	</g>
	<g
   id="g2982">
		
			<radialGradient
   id="SVGID_7_"
   cx="12.3413"
   cy="21.1919"
   r="5.7101"
   gradientTransform="matrix(1.0041 0 0 0.757 0.2847 4.5565)"
   gradientUnits="userSpaceOnUse">
			<stop
   offset="0"
   style="stop-color:#F9FAFB"
   id="stop2964" />
			<stop
   offset="1"
   style="stop-color:#D3D3D3"
   id="stop2966" />
		</radialGradient>
		<circle
   class="st10"
   cx="12.5"
   cy="18.5"
   r="3.5"
   id="circle2969" />
		<circle
   class="st11"
   cx="12.5"
   cy="18.5"
   r="2.8"
   id="circle2971" />
		
			<radialGradient
   id="SVGID_8_"
   cx="12.1991"
   cy="18.7322"
   r="5.2149"
   gradientTransform="matrix(0.9834 0 0 0.5716 0.5369 9.081)"
   gradientUnits="userSpaceOnUse">
			<stop
   offset="0"
   style="stop-color:#7E8087"
   id="stop2973" />
			<stop
   offset="1"
   style="stop-color:#FAFAFA"
   id="stop2975" />
		</radialGradient>
		<circle
   class="st12"
   cx="12.5"
   cy="18.5"
   r="2.5"
   id="circle2978" />
		<path
   class="st13"
   d="M12.5,17.3C12.4,17.3,12.4,17.3,12.5,17.3l-0.1-1c0-0.1,0-0.1,0.1-0.1c0.1,0,0.1,0,0.1,0.1L12.5,17.3    C12.6,17.3,12.6,17.3,12.5,17.3z"
   id="path2980" />
	</g>
	<g
   id="g2986">
		<path
   class="st14"
   d="M20.7,17h-3.9c-0.3,0-0.5-0.2-0.5-0.5l0,0c0-0.3,0.2-0.5,0.5-0.5h3.9c0.3,0,0.5,0.2,0.5,0.5l0,0    C21.2,16.8,21,17,20.7,17z"
   id="path2984" />
	</g>
	<g
   id="g2990">
		<path
   class="st14"
   d="M20.7,18.9H17c-0.3,0-0.5-0.2-0.5-0.5l0,0c0-0.3,0.2-0.5,0.5-0.5h3.8c0.3,0,0.5,0.2,0.5,0.5l0,0    C21.2,18.7,21,18.9,20.7,18.9z"
   id="path2988" />
	</g>
	<g
   id="g2994">
		<path
   class="st14"
   d="M20.7,20.9h-3.9c-0.3,0-0.5-0.2-0.5-0.5l0,0c0-0.3,0.2-0.5,0.5-0.5h3.9c0.3,0,0.5,0.2,0.5,0.5l0,0    C21.2,20.7,21,20.9,20.7,20.9z"
   id="path2992" />
	</g>
	<g
   id="g2998">
		<path
   class="st14"
   d="M3.3,17h3.9c0.3,0,0.5-0.2,0.5-0.5l0,0c0-0.3-0.2-0.5-0.5-0.5H3.3c-0.3,0-0.5,0.2-0.5,0.5l0,0    C2.8,16.8,3,17,3.3,17z"
   id="path2996" />
	</g>
	<g
   id="g3002">
		<path
   class="st14"
   d="M3.3,18.9H7c0.3,0,0.5-0.2,0.5-0.5l0,0C7.5,18.2,7.3,18,7,18H3.3c-0.3,0-0.5,0.2-0.5,0.5l0,0    C2.8,18.7,3,18.9,3.3,18.9z"
   id="path3000" />
	</g>
	<g
   id="g3006">
		<path
   class="st14"
   d="M3.3,20.9h3.9c0.3,0,0.5-0.2,0.5-0.5l0,0c0-0.3-0.2-0.5-0.5-0.5H3.3c-0.3,0-0.5,0.2-0.5,0.5l0,0    C2.8,20.7,3,20.9,3.3,20.9z"
   id="path3004" />
	</g>
</g>
</svg>
