<?xml version="1.0" encoding="UTF-8" standalone="no"?>
<svg
   xmlns:dc="http://purl.org/dc/elements/1.1/"
   xmlns:cc="http://creativecommons.org/ns#"
   xmlns:rdf="http://www.w3.org/1999/02/22-rdf-syntax-ns#"
   xmlns:svg="http://www.w3.org/2000/svg"
   xmlns="http://www.w3.org/2000/svg"
   version="1.1"
   x="0px"
   y="0px"
   viewBox="0 0 32 32"
   style="enable-background:new 0 0 32 32;"
   xml:space="preserve"
   id="svg2440"><metadata
   id="metadata2446"><rdf:RDF><cc:Work
       rdf:about=""><dc:format>image/svg+xml</dc:format><dc:type
         rdf:resource="http://purl.org/dc/dcmitype/StillImage" /><dc:title></dc:title></cc:Work></rdf:RDF></metadata><defs
   id="defs2444" />
<style
   type="text/css"
   id="style2278">
	.st0{display:none;}
	.st1{display:inline;opacity:0.2;fill:none;stroke:#000000;stroke-width:6.250000e-02;enable-background:new    ;}
	.st2{opacity:0.3;fill:url(#SVGID_1_);enable-background:new    ;}
	.st3{opacity:0.3;fill:url(#SVGID_2_);enable-background:new    ;}
	.st4{opacity:0.3;fill:url(#SVGID_3_);enable-background:new    ;}
	.st5{fill:url(#SVGID_4_);stroke:#910E38;stroke-width:0.9981;}
	.st6{fill:url(#SVGID_5_);}
	.st7{fill:url(#SVGID_6_);}
	.st8{fill:none;stroke:#ABACAE;stroke-width:0.5;stroke-miterlimit:10;}
	.st9{fill:none;stroke:#DE3E80;stroke-width:0.5;stroke-miterlimit:10;}
	.st10{fill:url(#SVGID_7_);}
	.st11{fill:#273445;stroke:#DE3E80;stroke-width:0.2349;stroke-linecap:round;stroke-linejoin:round;}
	.st12{fill:url(#SVGID_8_);stroke:#ABACAE;stroke-width:0.1686;stroke-linecap:round;stroke-linejoin:round;}
	.st13{fill:#D4D4D4;stroke:#ABACAE;stroke-width:6.859115e-02;}
	.st14{fill:url(#SVGID_9_);}
	.st15{fill:#0E141F;}
	.st16{fill:url(#SVGID_10_);}
	.st17{fill:url(#SVGID_11_);}
	.st18{fill:url(#SVGID_12_);}
	.st19{fill:url(#SVGID_13_);}
	.st20{fill:url(#SVGID_14_);}
</style>
<g
   id="Layer_1"
   class="st0">
	<path
   class="st1"
   d="M32,23.5H0 M32,24.5H0 M32,25.5H0 M32,23H0 M32,24H0 M32,25H0 M32,20.5H0 M32,21.5H0 M32,22.5H0 M32,20H0    M32,21H0 M32,22H0 M32,17.5H0 M32,18.5H0 M32,19.5H0 M32,17H0 M32,18H0 M32,19H0 M32,14.5H0 M32,15.5H0 M32,16.5H0 M32,14H0    M32,15H0 M32,16H0 M32,11.5H0 M32,12.5H0 M32,13.5H0 M32,11H0 M32,12H0 M32,13H0 M32,9.5H0 M32,10.5H0 M32,9H0 M32,10H0 M32,6.5H0    M32,7.5H0 M32,8.5H0 M32,6H0 M32,7H0 M32,8H0 M32,3.5H0 M32,4.5H0 M32,5.5H0 M32,3H0 M32,4H0 M32,5H0 M32,0.5H0 M32,1.5H0 M32,2.5   H0 M32,1H0 M32,2H0 M32,29H0 M32,30H0 M32,31H0 M32,28.5H0 M32,29.5H0 M32,30.5H0 M32,26H0 M32,27H0 M32,28H0 M32,26.5H0 M32,27.5   H0 M32,31.5H0 M8.5,32V0 M7.5,32V0 M6.5,32V0 M9,32V0 M8,32V0 M7,32V0 M11.5,32V0 M10.5,32V0 M9.5,32V0 M12,32V0 M11,32V0 M10,32V0    M14.5,32V0 M13.5,32V0 M12.5,32V0 M15,32V0 M14,32V0 M13,32V0 M17.5,32V0 M16.5,32V0 M15.5,32V0 M18,32V0 M17,32V0 M16,32V0    M20.5,32V0 M19.5,32V0 M18.5,32V0 M21,32V0 M20,32V0 M19,32V0 M22.5,32V0 M21.5,32V0 M23,32V0 M22,32V0 M25.5,32V0 M24.5,32V0    M23.5,32V0 M26,32V0 M25,32V0 M24,32V0 M28.5,32V0 M27.5,32V0 M26.5,32V0 M29,32V0 M28,32V0 M27,32V0 M31.5,32V0 M30.5,32V0    M29.5,32V0 M31,32V0 M30,32V0 M3,32V0 M2,32V0 M1,32V0 M3.5,32V0 M2.5,32V0 M1.5,32V0 M6,32V0 M5,32V0 M4,32V0 M5.5,32V0 M4.5,32   V0 M0.5,32V0"
   id="path2280" />
</g>
<g
   id="Layer_2">
	<g
   id="g2306">
		
			<linearGradient
   id="SVGID_1_"
   gradientUnits="userSpaceOnUse"
   x1="4818.8174"
   y1="-16161.1924"
   x2="4818.8174"
   y2="-16270.4824"
   gradientTransform="matrix(0.1018 0 0 -2.745000e-02 -474.5556 -415.1248)">
			<stop
   offset="0"
   style="stop-color:#000000;stop-opacity:0"
   id="stop2283" />
			<stop
   offset="0.5"
   style="stop-color:#000000"
   id="stop2285" />
			<stop
   offset="1"
   style="stop-color:#000000;stop-opacity:0"
   id="stop2287" />
		</linearGradient>
		<path
   class="st2"
   d="M4.8,28.5h22.5v3H4.8V28.5z"
   id="path2290" />
		
			<radialGradient
   id="SVGID_2_"
   cx="8336.8027"
   cy="-16211.4492"
   r="54.0459"
   gradientTransform="matrix(5.980000e-02 0 0 -2.745000e-02 -471.2056 -415.1248)"
   gradientUnits="userSpaceOnUse">
			<stop
   offset="0"
   style="stop-color:#000000"
   id="stop2292" />
			<stop
   offset="1"
   style="stop-color:#000000;stop-opacity:0"
   id="stop2294" />
		</radialGradient>
		<path
   class="st3"
   d="M27.2,28.4v3.1c1.4,0,3.4-0.7,3.4-1.5S29.1,28.4,27.2,28.4z"
   id="path2297" />
		
			<radialGradient
   id="SVGID_3_"
   cx="-8619.71"
   cy="-16211.4492"
   r="54.0459"
   gradientTransform="matrix(-5.980000e-02 0 0 -2.745000e-02 -510.7934 -415.1248)"
   gradientUnits="userSpaceOnUse">
			<stop
   offset="0"
   style="stop-color:#000000"
   id="stop2299" />
			<stop
   offset="1"
   style="stop-color:#000000;stop-opacity:0"
   id="stop2301" />
		</radialGradient>
		<path
   class="st4"
   d="M4.8,28.4v3.1c-1.4,0-3.4-0.7-3.4-1.5S2.9,28.4,4.8,28.4z"
   id="path2304" />
	</g>
	
		<radialGradient
   id="SVGID_4_"
   cx="15.7633"
   cy="29.9087"
   r="42.8969"
   gradientTransform="matrix(1.0098 6.409753e-03 -2.639294e-03 0.4005 -7.707883e-02 17.0534)"
   gradientUnits="userSpaceOnUse">
		<stop
   offset="0"
   style="stop-color:#910E38"
   id="stop2308" />
		<stop
   offset="1"
   style="stop-color:#DE3E80"
   id="stop2310" />
	</radialGradient>
	<path
   class="st5"
   d="M27.3,29.5H4.7c-1.8,0-3.2-1.5-3.2-3.2V12.7C1.5,11,3,9.5,4.7,9.5h22.5c1.8,0,3.2,1.5,3.2,3.2v13.5   C30.5,28,29,29.5,27.3,29.5z"
   id="path2313" />
	
		<linearGradient
   id="SVGID_5_"
   gradientUnits="userSpaceOnUse"
   x1="16.7344"
   y1="20"
   x2="16.7344"
   y2="11.045"
   gradientTransform="matrix(1.0987 0 0 1 -2.3858 0)">
		<stop
   offset="0"
   style="stop-color:#DE3E80"
   id="stop2315" />
		<stop
   offset="1"
   style="stop-color:#910E38"
   id="stop2317" />
	</linearGradient>
	<path
   class="st6"
   d="M3,17.6v-4.2C3,12.1,4,11,5.3,11h21.3c1.3,0,2.4,1.1,2.4,2.4v4.2c0,1.3-1.1,2.4-2.4,2.4H5.3   C4,20,3,18.9,3,17.6z"
   id="path2320" />
	<linearGradient
   id="SVGID_6_"
   gradientUnits="userSpaceOnUse"
   x1="16"
   y1="19"
   x2="16"
   y2="12.5">
		<stop
   offset="0.6869"
   style="stop-color:#FAFAFA"
   id="stop2322" />
		<stop
   offset="1"
   style="stop-color:#ABACAE"
   id="stop2324" />
	</linearGradient>
	<path
   class="st7"
   d="M26.3,19H5.7c-0.8,0-1.5-0.7-1.5-1.5V14c0-0.8,0.7-1.5,1.5-1.5h20.6c0.8,0,1.5,0.7,1.5,1.5v3.6   C27.8,18.3,27.1,19,26.3,19z"
   id="path2327" />
	<g
   id="g2351">
		<line
   class="st8"
   x1="6.5"
   y1="13.5"
   x2="6.5"
   y2="17.8"
   id="line2329" />
		<line
   class="st8"
   x1="8.5"
   y1="14.2"
   x2="8.5"
   y2="17"
   id="line2331" />
		<line
   class="st8"
   x1="10.8"
   y1="13.5"
   x2="10.8"
   y2="17.8"
   id="line2333" />
		<line
   class="st8"
   x1="12.5"
   y1="14.2"
   x2="12.5"
   y2="17"
   id="line2335" />
		<line
   class="st8"
   x1="15.5"
   y1="13.5"
   x2="15.5"
   y2="17.8"
   id="line2337" />
		<line
   class="st8"
   x1="17.8"
   y1="14.2"
   x2="17.8"
   y2="17"
   id="line2339" />
		<line
   class="st8"
   x1="19.5"
   y1="14.2"
   x2="19.5"
   y2="17"
   id="line2341" />
		<line
   class="st8"
   x1="21.2"
   y1="13.5"
   x2="21.2"
   y2="17.8"
   id="line2343" />
		<line
   class="st8"
   x1="25.3"
   y1="13.5"
   x2="25.3"
   y2="17"
   id="line2345" />
		<line
   class="st8"
   x1="23.5"
   y1="14.2"
   x2="23.5"
   y2="17"
   id="line2347" />
		<line
   class="st9"
   x1="13.5"
   y1="12.5"
   x2="13.5"
   y2="19"
   id="line2349" />
	</g>
	<g
   id="g2371">
		
			<radialGradient
   id="SVGID_7_"
   cx="15.8894"
   cy="27.8073"
   r="7.3489"
   gradientTransform="matrix(1.0041 0 0 0.757 0.2683 6.1912)"
   gradientUnits="userSpaceOnUse">
			<stop
   offset="0"
   style="stop-color:#FAFAFA"
   id="stop2353" />
			<stop
   offset="1"
   style="stop-color:#D4D4D4"
   id="stop2355" />
		</radialGradient>
		<circle
   class="st10"
   cx="16"
   cy="24.5"
   r="4.5"
   id="circle2358" />
		<circle
   class="st11"
   cx="16"
   cy="24.5"
   r="3.6"
   id="circle2360" />
		
			<radialGradient
   id="SVGID_8_"
   cx="15.6943"
   cy="25.1444"
   r="6.4575"
   gradientTransform="matrix(0.9834 0 0 0.5716 0.6034 11.7214)"
   gradientUnits="userSpaceOnUse">
			<stop
   offset="0"
   style="stop-color:#7E8087"
   id="stop2362" />
			<stop
   offset="1"
   style="stop-color:#FAFAFA"
   id="stop2364" />
		</radialGradient>
		<circle
   class="st12"
   cx="16"
   cy="24.5"
   r="3.1"
   id="circle2367" />
		<path
   class="st13"
   d="M16,23c-0.1,0-0.1-0.1-0.1-0.1v-1.2c0-0.1,0.1-0.1,0.1-0.1c0.1,0,0.1,0.1,0.1,0.1v1.2C16.1,23,16.1,23,16,23    z"
   id="path2369" />
	</g>
	<g
   id="g2382">
		<linearGradient
   id="SVGID_9_"
   gradientUnits="userSpaceOnUse"
   x1="24.9491"
   y1="23.5"
   x2="24.9491"
   y2="21.75">
			<stop
   offset="0"
   style="stop-color:#DE3E80"
   id="stop2373" />
			<stop
   offset="1"
   style="stop-color:#910E38"
   id="stop2375" />
		</linearGradient>
		<path
   class="st14"
   d="M22.4,23.5c-0.5,0-1-0.5-0.9-1c0.1-0.4,0.5-0.7,0.9-0.7h5c0.4,0,0.8,0.3,0.9,0.7c0.1,0.6-0.3,1-0.9,1H22.4z"
   id="path2378" />
		<path
   class="st15"
   d="M27.6,23.2h-5.2c-0.3,0-0.6-0.3-0.6-0.6l0,0c0-0.3,0.3-0.6,0.6-0.6h5.2c0.3,0,0.6,0.3,0.6,0.6l0,0    C28.2,23,28,23.2,27.6,23.2z"
   id="path2380" />
	</g>
	<g
   id="g2393">
		<linearGradient
   id="SVGID_10_"
   gradientUnits="userSpaceOnUse"
   x1="25.1108"
   y1="25.5"
   x2="25.1108"
   y2="23.75">
			<stop
   offset="0"
   style="stop-color:#DE3E80"
   id="stop2384" />
			<stop
   offset="1"
   style="stop-color:#910E38"
   id="stop2386" />
		</linearGradient>
		<path
   class="st16"
   d="M22.7,25.5c-0.5,0-1-0.5-0.9-1c0.1-0.4,0.5-0.7,0.9-0.7h4.7c0.4,0,0.8,0.3,0.9,0.7c0.1,0.6-0.3,1-0.9,1H22.7    z"
   id="path2389" />
		<path
   class="st15"
   d="M27.6,25.2h-5c-0.3,0-0.6-0.3-0.6-0.6l0,0c0-0.3,0.3-0.6,0.6-0.6h5c0.3,0,0.6,0.3,0.6,0.6l0,0    C28.2,25,28,25.2,27.6,25.2z"
   id="path2391" />
	</g>
	<g
   id="g2404">
		<linearGradient
   id="SVGID_11_"
   gradientUnits="userSpaceOnUse"
   x1="24.9491"
   y1="27.5"
   x2="24.9491"
   y2="25.75">
			<stop
   offset="0"
   style="stop-color:#DE3E80"
   id="stop2395" />
			<stop
   offset="1"
   style="stop-color:#910E38"
   id="stop2397" />
		</linearGradient>
		<path
   class="st17"
   d="M22.4,27.5c-0.5,0-1-0.5-0.9-1c0.1-0.4,0.5-0.7,0.9-0.7h5c0.4,0,0.8,0.3,0.9,0.7c0.1,0.6-0.3,1-0.9,1H22.4z"
   id="path2400" />
		<path
   class="st15"
   d="M27.6,27.2h-5.2c-0.3,0-0.6-0.3-0.6-0.6l0,0c0-0.3,0.3-0.6,0.6-0.6h5.2c0.3,0,0.6,0.3,0.6,0.6l0,0    C28.2,27,28,27.2,27.6,27.2z"
   id="path2402" />
	</g>
	<g
   id="g2415">
		
			<linearGradient
   id="SVGID_12_"
   gradientUnits="userSpaceOnUse"
   x1="96.5419"
   y1="23.5"
   x2="96.5419"
   y2="21.75"
   gradientTransform="matrix(-1 0 0 1 103.5928 0)">
			<stop
   offset="0"
   style="stop-color:#DE3E80"
   id="stop2406" />
			<stop
   offset="1"
   style="stop-color:#910E38"
   id="stop2408" />
		</linearGradient>
		<path
   class="st18"
   d="M9.6,23.5c0.5,0,1-0.5,0.9-1c-0.1-0.4-0.5-0.7-0.9-0.7h-5c-0.4,0-0.8,0.3-0.9,0.7c-0.1,0.6,0.3,1,0.9,1H9.6z    "
   id="path2411" />
		<path
   class="st15"
   d="M4.4,23.2h5.3c0.3,0,0.6-0.3,0.6-0.6l0,0c0-0.3-0.3-0.6-0.6-0.6H4.4c-0.3,0-0.6,0.3-0.6,0.6l0,0    C3.8,23,4,23.2,4.4,23.2z"
   id="path2413" />
	</g>
	<g
   id="g2426">
		
			<linearGradient
   id="SVGID_13_"
   gradientUnits="userSpaceOnUse"
   x1="96.7036"
   y1="25.5"
   x2="96.7036"
   y2="23.75"
   gradientTransform="matrix(-1 0 0 1 103.5928 0)">
			<stop
   offset="0"
   style="stop-color:#DE3E80"
   id="stop2417" />
			<stop
   offset="1"
   style="stop-color:#910E38"
   id="stop2419" />
		</linearGradient>
		<path
   class="st19"
   d="M9.3,25.5c0.5,0,1-0.5,0.9-1c-0.1-0.4-0.5-0.7-0.9-0.7H4.5c-0.4,0-0.8,0.3-0.9,0.7c-0.1,0.6,0.3,1,0.9,1H9.3    z"
   id="path2422" />
		<path
   class="st15"
   d="M4.4,25.2h5c0.3,0,0.6-0.3,0.6-0.6l0,0c0-0.3-0.3-0.6-0.6-0.6h-5c-0.3,0-0.6,0.3-0.6,0.6l0,0    C3.8,25,4,25.2,4.4,25.2z"
   id="path2424" />
	</g>
	<g
   id="g2437">
		
			<linearGradient
   id="SVGID_14_"
   gradientUnits="userSpaceOnUse"
   x1="96.5419"
   y1="27.5"
   x2="96.5419"
   y2="25.75"
   gradientTransform="matrix(-1 0 0 1 103.5928 0)">
			<stop
   offset="0"
   style="stop-color:#DE3E80"
   id="stop2428" />
			<stop
   offset="1"
   style="stop-color:#910E38"
   id="stop2430" />
		</linearGradient>
		<path
   class="st20"
   d="M9.6,27.5c0.5,0,1-0.5,0.9-1c-0.1-0.4-0.5-0.7-0.9-0.7h-5c-0.4,0-0.8,0.3-0.9,0.7c-0.1,0.6,0.3,1,0.9,1H9.6z    "
   id="path2433" />
		<path
   class="st15"
   d="M4.4,27.2h5.3c0.3,0,0.6-0.3,0.6-0.6l0,0c0-0.3-0.3-0.6-0.6-0.6H4.4c-0.3,0-0.6,0.3-0.6,0.6l0,0    C3.8,27,4,27.2,4.4,27.2z"
   id="path2435" />
	</g>
</g>
</svg>
