<?xml version="1.0" encoding="UTF-8" standalone="no"?>
<svg
   xmlns:dc="http://purl.org/dc/elements/1.1/"
   xmlns:cc="http://creativecommons.org/ns#"
   xmlns:rdf="http://www.w3.org/1999/02/22-rdf-syntax-ns#"
   xmlns:svg="http://www.w3.org/2000/svg"
   xmlns="http://www.w3.org/2000/svg"
   version="1.1"
   x="0px"
   y="0px"
   viewBox="0 0 64 64"
   style="enable-background:new 0 0 64 64;"
   xml:space="preserve"
   id="svg1076"><metadata
   id="metadata1082"><rdf:RDF><cc:Work
       rdf:about=""><dc:format>image/svg+xml</dc:format><dc:type
         rdf:resource="http://purl.org/dc/dcmitype/StillImage" /><dc:title></dc:title></cc:Work></rdf:RDF></metadata><defs
   id="defs1080" />
<style
   type="text/css"
   id="style904">
	.st0{display:none;}
	.st1{display:inline;opacity:0.2;fill:none;stroke:#000000;stroke-width:0.125;enable-background:new    ;}
	.st2{opacity:0.3;fill:url(#SVGID_1_);enable-background:new    ;}
	.st3{opacity:0.3;fill:url(#SVGID_2_);enable-background:new    ;}
	.st4{opacity:0.3;fill:url(#SVGID_3_);enable-background:new    ;}
	.st5{fill:url(#SVGID_4_);stroke:#910E38;}
	.st6{fill:url(#SVGID_5_);}
	.st7{fill:url(#SVGID_6_);}
	.st8{fill:none;stroke:#ABACAE;stroke-width:0.8938;stroke-miterlimit:10;}
	.st9{fill:none;stroke:#DE3E80;stroke-width:1.0954;stroke-miterlimit:10;}
	.st10{fill:url(#SVGID_7_);}
	.st11{fill:#273445;stroke:#DE3E80;stroke-width:0.4568;stroke-linecap:round;stroke-linejoin:round;}
	.st12{fill:url(#SVGID_8_);stroke:#ABACAE;stroke-width:0.3279;stroke-linecap:round;stroke-linejoin:round;}
	.st13{fill:#D4D4D4;stroke:#ABACAE;stroke-width:0.1334;}
	.st14{fill:url(#SVGID_9_);}
	.st15{fill:#0E141F;}
	.st16{fill:url(#SVGID_10_);}
	.st17{fill:url(#SVGID_11_);}
	.st18{fill:url(#SVGID_12_);}
	.st19{fill:url(#SVGID_13_);}
	.st20{fill:url(#SVGID_14_);}
</style>
<g
   id="Layer_1"
   class="st0">
	<path
   class="st1"
   d="M64,47.1H0 M64,49.1H0 M64,51.1H0 M64,46.1H0 M64,48.1H0 M64,50.1H0 M64,41.1H0 M64,43.1H0 M64,45.1H0    M64,40.1H0 M64,42.1H0 M64,44.1H0 M64,35.1H0 M64,37.1H0 M64,39.1H0 M64,34.1H0 M64,36.1H0 M64,38.1H0 M64,29.1H0 M64,31.1H0    M64,33.1H0 M64,28.1H0 M64,30.1H0 M64,32.1H0 M64,23.1H0 M64,25.1H0 M64,27.1H0 M64,22.1H0 M64,24.1H0 M64,26.1H0 M64,19.1H0    M64,21.1H0 M64,18.1H0 M64,20.1H0 M64,13.1H0 M64,15.1H0 M64,17.1H0 M64,12.1H0 M64,14.1H0 M64,16.1H0 M64,7.1H0 M64,9.1H0    M64,11.1H0 M64,6.1H0 M64,8.1H0 M64,10.1H0 M64,1.1H0 M64,3.1H0 M64,5.1H0 M64,2.1H0 M64,4.1H0 M64,58.1H0 M64,60.1H0 M64,62.1H0    M64,57.1H0 M64,59.1H0 M64,61.1H0 M64,52.1H0 M64,54.1H0 M64,56.1H0 M64,53.1H0 M64,55.1H0 M64,63.1H0 M17.1,64V0 M15.1,64V0    M13.1,64V0 M18.1,64V0 M16.1,64V0 M14.1,64V0 M23.1,64V0 M21.1,64V0 M19.1,64V0 M24.1,64V0 M22.1,64V0 M20.1,64V0 M29.1,64V0    M27.1,64V0 M25.1,64V0 M30.1,64V0 M28.1,64V0 M26.1,64V0 M35.1,64V0 M33.1,64V0 M31.1,64V0 M36.1,64V0 M34.1,64V0 M32.1,64V0    M41.1,64V0 M39.1,64V0 M37.1,64V0 M42.1,64V0 M40.1,64V0 M38.1,64V0 M45.1,64V0 M43.1,64V0 M46.1,64V0 M44.1,64V0 M51.1,64V0    M49.1,64V0 M47.1,64V0 M52.1,64V0 M50.1,64V0 M48.1,64V0 M57.1,64V0 M55.1,64V0 M53.1,64V0 M58.1,64V0 M56.1,64V0 M54.1,64V0    M63.1,64V0 M61.1,64V0 M59.1,64V0 M62.1,64V0 M60.1,64V0 M6.1,64V0 M4.1,64V0 M2.1,64V0 M7.1,64V0 M5.1,64V0 M3.1,64V0 M12.1,64V0    M10.1,64V0 M8.1,64V0 M11.1,64V0 M9.1,64V0 M1.1,64V0"
   id="path906" />
</g>
<g
   id="Layer_2">
	<g
   id="g932">
		
			<linearGradient
   id="SVGID_1_"
   gradientUnits="userSpaceOnUse"
   x1="4834.8174"
   y1="-17199.4434"
   x2="4834.8174"
   y2="-17418.0234"
   gradientTransform="matrix(0.1018 0 0 -2.745000e-02 -460.1844 -415.1248)">
			<stop
   offset="0"
   style="stop-color:#000000;stop-opacity:0"
   id="stop909" />
			<stop
   offset="0.5"
   style="stop-color:#000000"
   id="stop911" />
			<stop
   offset="1"
   style="stop-color:#000000;stop-opacity:0"
   id="stop913" />
		</linearGradient>
		<path
   class="st2"
   d="M9.5,57h45v6h-45V57z"
   id="path916" />
		
			<radialGradient
   id="SVGID_2_"
   cx="8542.3555"
   cy="-17299.957"
   r="108.0918"
   gradientTransform="matrix(5.980000e-02 0 0 -2.745000e-02 -456.1624 -415.1248)"
   gradientUnits="userSpaceOnUse">
			<stop
   offset="0"
   style="stop-color:#000000"
   id="stop918" />
			<stop
   offset="1"
   style="stop-color:#000000;stop-opacity:0"
   id="stop920" />
		</radialGradient>
		<path
   class="st3"
   d="M54.5,56.7v6.2c2.8,0,6.9-1.4,6.9-3.1S58.2,56.7,54.5,56.7z"
   id="path923" />
		
			<radialGradient
   id="SVGID_3_"
   cx="-8414.166"
   cy="-17299.957"
   r="108.0918"
   gradientTransform="matrix(-5.980000e-02 0 0 -2.745000e-02 -493.8366 -415.1248)"
   gradientUnits="userSpaceOnUse">
			<stop
   offset="0"
   style="stop-color:#000000"
   id="stop925" />
			<stop
   offset="1"
   style="stop-color:#000000;stop-opacity:0"
   id="stop927" />
		</radialGradient>
		<path
   class="st4"
   d="M9.5,56.7v6.2c-2.8,0-6.9-1.4-6.9-3.1S5.8,56.7,9.5,56.7z"
   id="path930" />
	</g>
	
		<radialGradient
   id="SVGID_4_"
   cx="31.0368"
   cy="59.3107"
   r="84.307"
   gradientTransform="matrix(1.0098 6.569997e-03 -2.639294e-03 0.4106 0.3445 35.1957)"
   gradientUnits="userSpaceOnUse">
		<stop
   offset="0"
   style="stop-color:#910E38"
   id="stop934" />
		<stop
   offset="1"
   style="stop-color:#DE3E80"
   id="stop936" />
	</radialGradient>
	<path
   class="st5"
   d="M53.9,60.5H10.1c-3.6,0-6.6-2.9-6.6-6.6V26.1c0-3.6,2.9-6.6,6.6-6.6h43.9c3.6,0,6.6,2.9,6.6,6.6v27.9   C60.5,57.6,57.6,60.5,53.9,60.5z"
   id="path939" />
	
		<linearGradient
   id="SVGID_5_"
   gradientUnits="userSpaceOnUse"
   x1="32.7344"
   y1="39.9189"
   x2="32.7344"
   y2="23.0541"
   gradientTransform="matrix(1.0987 0 0 1 -3.9647 0)">
		<stop
   offset="0"
   style="stop-color:#DE3E80"
   id="stop941" />
		<stop
   offset="1"
   style="stop-color:#910E38"
   id="stop943" />
	</linearGradient>
	<path
   class="st6"
   d="M7,35.5v-8c0-2.4,2-4.4,4.4-4.4h41.1c2.4,0,4.4,2,4.4,4.4v8c0,2.4-2,4.4-4.4,4.4H11.4C9,39.9,7,37.9,7,35.5z"
   id="path946" />
	<linearGradient
   id="SVGID_6_"
   gradientUnits="userSpaceOnUse"
   x1="32"
   y1="38"
   x2="32"
   y2="25">
		<stop
   offset="0.6898"
   style="stop-color:#FAFAFA"
   id="stop948" />
		<stop
   offset="1"
   style="stop-color:#ABACAE"
   id="stop950" />
	</linearGradient>
	<path
   class="st7"
   d="M52.6,38H11.4c-1.6,0-2.9-1.3-2.9-2.9v-7.1c0-1.6,1.3-2.9,2.9-2.9h41.1c1.6,0,2.9,1.3,2.9,2.9v7.1   C55.5,36.7,54.2,38,52.6,38z"
   id="path953" />
	<g
   id="g983">
		<line
   class="st8"
   x1="12.5"
   y1="27"
   x2="12.5"
   y2="36"
   id="line955" />
		<line
   class="st8"
   x1="15.5"
   y1="29"
   x2="15.5"
   y2="34"
   id="line957" />
		<line
   class="st8"
   x1="18.5"
   y1="29"
   x2="18.5"
   y2="34"
   id="line959" />
		<line
   class="st8"
   x1="22.5"
   y1="27"
   x2="22.5"
   y2="36"
   id="line961" />
		<line
   class="st8"
   x1="25.5"
   y1="29"
   x2="25.5"
   y2="34"
   id="line963" />
		<line
   class="st8"
   x1="28.5"
   y1="29"
   x2="28.5"
   y2="34"
   id="line965" />
		<line
   class="st8"
   x1="32.5"
   y1="27"
   x2="32.5"
   y2="36"
   id="line967" />
		<line
   class="st8"
   x1="35.5"
   y1="29"
   x2="35.5"
   y2="34"
   id="line969" />
		<line
   class="st8"
   x1="39.5"
   y1="29"
   x2="39.5"
   y2="34"
   id="line971" />
		<line
   class="st8"
   x1="43.5"
   y1="27"
   x2="43.5"
   y2="36"
   id="line973" />
		<line
   class="st8"
   x1="52.5"
   y1="27"
   x2="52.5"
   y2="36"
   id="line975" />
		<line
   class="st8"
   x1="46.5"
   y1="29"
   x2="46.5"
   y2="34"
   id="line977" />
		<line
   class="st8"
   x1="49.5"
   y1="29"
   x2="49.5"
   y2="34"
   id="line979" />
		<line
   class="st9"
   x1="27.5"
   y1="25"
   x2="27.5"
   y2="38"
   id="line981" />
	</g>
	<g
   id="g1003">
		
			<radialGradient
   id="SVGID_7_"
   cx="32.1115"
   cy="54.9373"
   r="14.6977"
   gradientTransform="matrix(1.0041 0 0 0.757 0.2027 12.8951)"
   gradientUnits="userSpaceOnUse">
			<stop
   offset="0"
   style="stop-color:#FAFAFA"
   id="stop985" />
			<stop
   offset="1"
   style="stop-color:#D4D4D4"
   id="stop987" />
		</radialGradient>
		<circle
   class="st10"
   cx="32"
   cy="49"
   r="9"
   id="circle990" />
		<circle
   class="st11"
   cx="32"
   cy="49"
   r="7"
   id="circle992" />
		
			<radialGradient
   id="SVGID_8_"
   cx="31.7296"
   cy="51.5892"
   r="12.5562"
   gradientTransform="matrix(0.9834 0 0 0.5716 0.8694 22.611)"
   gradientUnits="userSpaceOnUse">
			<stop
   offset="0"
   style="stop-color:#7E8087"
   id="stop994" />
			<stop
   offset="1"
   style="stop-color:#FAFAFA"
   id="stop996" />
		</radialGradient>
		<circle
   class="st12"
   cx="32"
   cy="49"
   r="6"
   id="circle999" />
		<path
   class="st13"
   d="M32,46.4c-0.1,0-0.2-0.1-0.2-0.2v-2.3c0-0.1,0.1-0.2,0.2-0.2c0.1,0,0.2,0.1,0.2,0.2v2.3    C32.2,46.3,32.1,46.4,32,46.4z"
   id="path1001" />
	</g>
	<g
   id="g1038">
		<g
   id="g1014">
			<linearGradient
   id="SVGID_9_"
   gradientUnits="userSpaceOnUse"
   x1="50.014"
   y1="47"
   x2="50.014"
   y2="43.0833">
				<stop
   offset="0"
   style="stop-color:#DE3E80"
   id="stop1005" />
				<stop
   offset="1"
   style="stop-color:#910E38"
   id="stop1007" />
			</linearGradient>
			<path
   class="st14"
   d="M44.8,47c-1.1,0-2-1.1-1.8-2.3c0.2-1,1-1.6,1.8-1.6h10.2c0.9,0,1.7,0.6,1.8,1.6c0.2,1.2-0.7,2.3-1.8,2.3     H44.8z"
   id="path1010" />
			<path
   class="st15"
   d="M55,46H45c-0.5,0-1-0.4-1-1V45c0-0.5,0.4-1,1-1H55c0.5,0,1,0.4,1,1V45C56,45.6,55.6,46,55,46z"
   id="path1012" />
		</g>
		<g
   id="g1025">
			<linearGradient
   id="SVGID_10_"
   gradientUnits="userSpaceOnUse"
   x1="50.4747"
   y1="50.9583"
   x2="50.4747"
   y2="47.0833">
				<stop
   offset="0"
   style="stop-color:#DE3E80"
   id="stop1016" />
				<stop
   offset="1"
   style="stop-color:#910E38"
   id="stop1018" />
			</linearGradient>
			<path
   class="st16"
   d="M45.7,51c-1.1,0-1.9-1.1-1.7-2.3c0.2-0.9,0.9-1.6,1.8-1.6h9.3c0.9,0,1.6,0.6,1.8,1.6     c0.2,1.2-0.6,2.3-1.7,2.3H45.7z"
   id="path1021" />
			<path
   class="st15"
   d="M55.1,50.1h-9.2c-0.5,0-1-0.4-1-1V49c0-0.5,0.4-1,1-1h9.2c0.5,0,1,0.4,1,1v0.1C56,49.6,55.6,50.1,55.1,50.1     z"
   id="path1023" />
		</g>
		<g
   id="g1036">
			<linearGradient
   id="SVGID_11_"
   gradientUnits="userSpaceOnUse"
   x1="50.014"
   y1="55"
   x2="50.014"
   y2="50.9583">
				<stop
   offset="0"
   style="stop-color:#DE3E80"
   id="stop1027" />
				<stop
   offset="1"
   style="stop-color:#910E38"
   id="stop1029" />
			</linearGradient>
			<path
   class="st17"
   d="M44.8,55c-1.1,0-2-1.1-1.8-2.4c0.2-1,1-1.6,1.8-1.6h10.2c0.9,0,1.7,0.7,1.8,1.6c0.2,1.3-0.7,2.4-1.8,2.4     H44.8z"
   id="path1032" />
			<path
   class="st15"
   d="M55.1,54H44.9c-0.5,0-1-0.4-1-1V53c0-0.5,0.4-1,1-1h10.1c0.5,0,1,0.4,1,1V53C56,53.6,55.6,54,55.1,54z"
   id="path1034" />
		</g>
	</g>
	<g
   id="g1073">
		<g
   id="g1049">
			
				<linearGradient
   id="SVGID_12_"
   gradientUnits="userSpaceOnUse"
   x1="86.0358"
   y1="47"
   x2="86.0358"
   y2="43.0833"
   gradientTransform="matrix(-1 0 0 1 100.028 0)">
				<stop
   offset="0"
   style="stop-color:#DE3E80"
   id="stop1040" />
				<stop
   offset="1"
   style="stop-color:#910E38"
   id="stop1042" />
			</linearGradient>
			<path
   class="st18"
   d="M19.2,47c1.1,0,2-1.1,1.8-2.3c-0.2-1-1-1.6-1.8-1.6H8.9c-0.9,0-1.7,0.6-1.8,1.6C6.8,45.9,7.7,47,8.8,47     H19.2z"
   id="path1045" />
			<path
   class="st15"
   d="M9,46H19c0.5,0,1-0.4,1-1V45c0-0.5-0.4-1-1-1H9c-0.5,0-1,0.4-1,1V45C8,45.6,8.4,46,9,46z"
   id="path1047" />
		</g>
		<g
   id="g1060">
			
				<linearGradient
   id="SVGID_13_"
   gradientUnits="userSpaceOnUse"
   x1="86.4965"
   y1="50.9583"
   x2="86.4965"
   y2="47.0833"
   gradientTransform="matrix(-1 0 0 1 100.028 0)">
				<stop
   offset="0"
   style="stop-color:#DE3E80"
   id="stop1051" />
				<stop
   offset="1"
   style="stop-color:#910E38"
   id="stop1053" />
			</linearGradient>
			<path
   class="st19"
   d="M18.3,51c1.1,0,1.9-1.1,1.7-2.3c-0.2-0.9-0.9-1.6-1.8-1.6H8.9c-0.9,0-1.6,0.6-1.8,1.6     C6.9,49.9,7.7,51,8.8,51H18.3z"
   id="path1056" />
			<path
   class="st15"
   d="M8.9,50.1h9.2c0.5,0,1-0.4,1-1V49c0-0.5-0.4-1-1-1H8.9c-0.5,0-1,0.4-1,1v0.1C8,49.6,8.4,50.1,8.9,50.1z"
   id="path1058" />
		</g>
		<g
   id="g1071">
			
				<linearGradient
   id="SVGID_14_"
   gradientUnits="userSpaceOnUse"
   x1="86.0358"
   y1="55"
   x2="86.0358"
   y2="50.9583"
   gradientTransform="matrix(-1 0 0 1 100.028 0)">
				<stop
   offset="0"
   style="stop-color:#DE3E80"
   id="stop1062" />
				<stop
   offset="1"
   style="stop-color:#910E38"
   id="stop1064" />
			</linearGradient>
			<path
   class="st20"
   d="M19.2,55c1.1,0,2-1.1,1.8-2.4c-0.2-1-1-1.6-1.8-1.6H8.9C8,51,7.2,51.6,7,52.6C6.8,53.9,7.7,55,8.8,55H19.2z     "
   id="path1067" />
			<path
   class="st15"
   d="M8.9,54h10.1c0.5,0,1-0.4,1-1V53c0-0.5-0.4-1-1-1H8.9c-0.5,0-1,0.4-1,1V53C8,53.6,8.4,54,8.9,54z"
   id="path1069" />
		</g>
	</g>
</g>
</svg>
