<?xml version="1.0" encoding="UTF-8" standalone="no"?>
<svg
   version="1.1"
   x="0px"
   y="0px"
   viewBox="0 0 64 64"
   style="enable-background:new 0 0 64 64;"
   xml:space="preserve"
   id="svg1076"
   sodipodi:docname="io.github.louis77.tuner-symbolic.svg"
   inkscape:version="1.4 (e7c3feb100, 2024-10-09)"
   inkscape:export-filename="io.github.louis77.tuner-symbolic.png"
   inkscape:export-xdpi="96"
   inkscape:export-ydpi="96"
   xmlns:inkscape="http://www.inkscape.org/namespaces/inkscape"
   xmlns:sodipodi="http://sodipodi.sourceforge.net/DTD/sodipodi-0.dtd"
   xmlns="http://www.w3.org/2000/svg"
   xmlns:svg="http://www.w3.org/2000/svg"
   xmlns:rdf="http://www.w3.org/1999/02/22-rdf-syntax-ns#"
   xmlns:cc="http://creativecommons.org/ns#"
   xmlns:dc="http://purl.org/dc/elements/1.1/"><sodipodi:namedview
   pagecolor="#ffffff"
   bordercolor="#666666"
   borderopacity="1"
   objecttolerance="10"
   gridtolerance="10"
   guidetolerance="10"
   inkscape:pageopacity="0"
   inkscape:pageshadow="2"
   inkscape:window-width="1236"
   inkscape:window-height="717"
   id="namedview99"
   showgrid="false"
   inkscape:zoom="7.375"
   inkscape:cx="29.966102"
   inkscape:cy="27.728814"
   inkscape:window-x="204"
   inkscape:window-y="206"
   inkscape:window-maximized="0"
   inkscape:current-layer="svg1076"
   inkscape:showpageshadow="2"
   inkscape:pagecheckerboard="0"
   inkscape:deskcolor="#d1d1d1" /><metadata
   id="metadata1082"><rdf:RDF><cc:Work
       rdf:about=""><dc:format>image/svg+xml</dc:format><dc:type
         rdf:resource="http://purl.org/dc/dcmitype/StillImage" /><dc:title /></cc:Work></rdf:RDF></metadata><defs
   id="defs1080" />
<style
   type="text/css"
   id="style904">
	.st0{display:none;}
	.st1{display:inline;opacity:0.2;fill:none;stroke:#000000;stroke-width:0.125;enable-background:new    ;}
	.st2{opacity:0.3;fill:url(#SVGID_1_);enable-background:new    ;}
	.st3{opacity:0.3;fill:url(#SVGID_2_);enable-background:new    ;}
	.st4{opacity:0.3;fill:url(#SVGID_3_);enable-background:new    ;}
	.st5{fill:url(#SVGID_4_);stroke:#910E38;}
	.st6{fill:url(#SVGID_5_);}
	.st7{fill:url(#SVGID_6_);}
	.st8{fill:none;stroke:#ABACAE;stroke-width:0.8938;stroke-miterlimit:10;}
	.st9{fill:none;stroke:#DE3E80;stroke-width:1.0954;stroke-miterlimit:10;}
	.st10{fill:url(#SVGID_7_);}
	.st11{fill:#273445;stroke:#DE3E80;stroke-width:0.4568;stroke-linecap:round;stroke-linejoin:round;}
	.st12{fill:url(#SVGID_8_);stroke:#ABACAE;stroke-width:0.3279;stroke-linecap:round;stroke-linejoin:round;}
	.st13{fill:#D4D4D4;stroke:#ABACAE;stroke-width:0.1334;}
	.st14{fill:url(#SVGID_9_);}
	.st15{fill:#0E141F;}
	.st16{fill:url(#SVGID_10_);}
	.st17{fill:url(#SVGID_11_);}
	.st18{fill:url(#SVGID_12_);}
	.st19{fill:url(#SVGID_13_);}
	.st20{fill:url(#SVGID_14_);}
</style>
<g
   id="Layer_1"
   class="st0"
   sodipodi:insensitive="true">
	<path
   class="st1"
   d="M 64,47.1 H 0 m 64,2 H 0 m 64,2 H 0 m 64,-5 H 0 m 64,2 H 0 m 64,2 H 0 m 64,-9 H 0 m 64,2 H 0 m 64,2 H 0 m 64,-5 H 0 m 64,2 H 0 m 64,2 H 0 m 64,-9 H 0 m 64,2 H 0 m 64,2 H 0 m 64,-5 H 0 m 64,2 H 0 m 64,2 H 0 m 64,-9 H 0 m 64,2 H 0 m 64,2 H 0 m 64,-5 H 0 m 64,2 H 0 m 64,2 H 0 m 64,-9 H 0 m 64,2 H 0 m 64,2 H 0 m 64,-5 H 0 m 64,2 H 0 m 64,2 H 0 m 64,-7 H 0 m 64,2 H 0 m 64,-3 H 0 m 64,2 H 0 m 64,-7 H 0 m 64,2 H 0 m 64,2 H 0 m 64,-5 H 0 m 64,2 H 0 m 64,2 H 0 m 64,-9 H 0 m 64,2 H 0 m 64,2 H 0 m 64,-5 H 0 m 64,2 H 0 m 64,2 H 0 m 64,-9 H 0 m 64,2 H 0 m 64,2 H 0 m 64,-3 H 0 m 64,2 H 0 m 64,54 H 0 m 64,2 H 0 m 64,2 H 0 m 64,-5 H 0 m 64,2 H 0 m 64,2 H 0 m 64,-9 H 0 m 64,2 H 0 m 64,2 H 0 m 64,-3 H 0 m 64,2 H 0 m 64,8 H 0 M 17.1,64 V 0 m -2,64 V 0 m -2,64 V 0 m 5,64 V 0 m -2,64 V 0 m -2,64 V 0 m 9,64 V 0 m -2,64 V 0 m -2,64 V 0 m 5,64 V 0 m -2,64 V 0 m -2,64 V 0 m 9,64 V 0 m -2,64 V 0 m -2,64 V 0 m 5,64 V 0 m -2,64 V 0 m -2,64 V 0 m 9,64 V 0 m -2,64 V 0 m -2,64 V 0 m 5,64 V 0 m -2,64 V 0 m -2,64 V 0 m 9,64 V 0 m -2,64 V 0 m -2,64 V 0 m 5,64 V 0 m -2,64 V 0 m -2,64 V 0 m 7,64 V 0 m -2,64 V 0 m 3,64 V 0 m -2,64 V 0 m 7,64 V 0 m -2,64 V 0 m -2,64 V 0 m 5,64 V 0 m -2,64 V 0 m -2,64 V 0 m 9,64 V 0 m -2,64 V 0 m -2,64 V 0 m 5,64 V 0 m -2,64 V 0 m -2,64 V 0 m 9,64 V 0 m -2,64 V 0 m -2,64 V 0 m 3,64 V 0 m -2,64 V 0 M 6.1,64 V 0 m -2,64 V 0 m -2,64 V 0 m 5,64 V 0 m -2,64 V 0 m -2,64 V 0 m 9,64 V 0 m -2,64 V 0 m -2,64 V 0 m 3,64 V 0 m -2,64 V 0 m -8,64 V 0"
   id="path906" />
</g>
<g
   id="Layer_2"
   transform="translate(0,-6)"
   style="display:inline">
	
	
		<radialGradient
   id="SVGID_4_"
   cx="31.0368"
   cy="59.310699"
   r="84.306999"
   gradientTransform="matrix(1.0098,0.00657,-0.00263929,0.4106,0.3445,35.1957)"
   gradientUnits="userSpaceOnUse">
		<stop
   offset="0"
   style="stop-color:#910E38"
   id="stop934" />
		<stop
   offset="1"
   style="stop-color:#DE3E80"
   id="stop936" />
	</radialGradient>
	<path
   class="st5"
   d="M 53.033597,59.483262 H 10.870134 c -3.4654908,0 -6.3533986,-2.756172 -6.3533986,-6.272659 V 26.789401 c 0,-3.421462 2.7916442,-6.272665 6.3533986,-6.272665 h 42.259727 c 3.465493,0 6.353396,2.75618 6.353396,6.272665 v 26.516235 c -0.09626,3.421454 -2.887903,6.177626 -6.44966,6.177626 z"
   id="path939"
   style="display:inline;fill:none;stroke:#b3b3b3;stroke-width:3.03348;stroke-dasharray:none;stroke-opacity:1"
   inkscape:connector-curvature="0"
   sodipodi:insensitive="true" />
	
		<linearGradient
   id="SVGID_5_"
   gradientUnits="userSpaceOnUse"
   x1="32.734402"
   y1="39.9189"
   x2="32.734402"
   y2="23.0541"
   gradientTransform="matrix(1.0987,0,0,1,-3.9647,0)">
		<stop
   offset="0"
   style="stop-color:#DE3E80"
   id="stop941" />
		<stop
   offset="1"
   style="stop-color:#910E38"
   id="stop943" />
	</linearGradient>
	<path
   class="st6"
   d="m 7.990754,36.404406 v -8.008807 c 0,-2.402641 1.9245886,-4.404844 4.234096,-4.404844 h 39.550301 c 2.309505,0 4.234095,2.002203 4.234095,4.404844 v 8.008807 c 0,2.402642 -1.92459,4.404845 -4.234095,4.404845 H 12.22485 c -2.3095074,0 -4.234096,-2.002203 -4.234096,-4.404845 z"
   id="path946"
   style="display:inline;fill:none;stroke:#b3b3b3;stroke-width:1.5;stroke-linecap:square;stroke-linejoin:miter;stroke-miterlimit:1;stroke-dasharray:none;stroke-opacity:1"
   inkscape:connector-curvature="0" />
	<linearGradient
   id="SVGID_6_"
   gradientUnits="userSpaceOnUse"
   x1="32"
   y1="38"
   x2="32"
   y2="25">
		<stop
   offset="0.6898"
   style="stop-color:#FAFAFA"
   id="stop948" />
		<stop
   offset="1"
   style="stop-color:#ABACAE"
   id="stop950" />
	</linearGradient>
	
	<g
   id="g983"
   style="display:inline;fill:#000000;fill-opacity:0"
   sodipodi:insensitive="true"
   transform="translate(0,0.6)">
		<line
   class="st8"
   x1="12.5"
   y1="27"
   x2="12.5"
   y2="36"
   id="line955"
   style="fill:#000000;fill-opacity:0;stroke:#abacae;stroke-width:0.8938;stroke-miterlimit:10" />
		<line
   class="st8"
   x1="15.5"
   y1="29"
   x2="15.5"
   y2="34"
   id="line957"
   style="fill:#000000;fill-opacity:0;stroke:#abacae;stroke-width:0.8938;stroke-miterlimit:10" />
		<line
   class="st8"
   x1="18.5"
   y1="29"
   x2="18.5"
   y2="34"
   id="line959"
   style="fill:#000000;fill-opacity:0;stroke:#abacae;stroke-width:0.8938;stroke-miterlimit:10" />
		<line
   class="st8"
   x1="22.5"
   y1="27"
   x2="22.5"
   y2="36"
   id="line961"
   style="fill:#000000;fill-opacity:0;stroke:#abacae;stroke-width:0.8938;stroke-miterlimit:10" />
		<line
   class="st8"
   x1="25.5"
   y1="29"
   x2="25.5"
   y2="34"
   id="line963"
   style="fill:#000000;fill-opacity:0;stroke:#abacae;stroke-width:0.8938;stroke-miterlimit:10" />
		<line
   class="st8"
   x1="28.5"
   y1="29"
   x2="28.5"
   y2="34"
   id="line965"
   style="fill:#000000;fill-opacity:0;stroke:#abacae;stroke-width:0.8938;stroke-miterlimit:10" />
		<line
   class="st8"
   x1="32.5"
   y1="27"
   x2="32.5"
   y2="36"
   id="line967"
   style="fill:#000000;fill-opacity:0;stroke:#abacae;stroke-width:0.8938;stroke-miterlimit:10" />
		<line
   class="st8"
   x1="35.5"
   y1="29"
   x2="35.5"
   y2="34"
   id="line969"
   style="fill:#000000;fill-opacity:0;stroke:#abacae;stroke-width:0.8938;stroke-miterlimit:10" />
		<line
   class="st8"
   x1="39.5"
   y1="29"
   x2="39.5"
   y2="34"
   id="line971"
   style="fill:#000000;fill-opacity:0;stroke:#abacae;stroke-width:0.8938;stroke-miterlimit:10" />
		<line
   class="st8"
   x1="43.5"
   y1="27"
   x2="43.5"
   y2="36"
   id="line973"
   style="fill:#000000;fill-opacity:0;stroke:#abacae;stroke-width:0.8938;stroke-miterlimit:10" />
		<line
   class="st8"
   x1="52.5"
   y1="27"
   x2="52.5"
   y2="36"
   id="line975"
   style="fill:#000000;fill-opacity:0;stroke:#abacae;stroke-width:0.8938;stroke-miterlimit:10" />
		<line
   class="st8"
   x1="46.5"
   y1="29"
   x2="46.5"
   y2="34"
   id="line977"
   style="fill:#000000;fill-opacity:0;stroke:#abacae;stroke-width:0.8938;stroke-miterlimit:10" />
		<line
   class="st8"
   x1="49.5"
   y1="29"
   x2="49.5"
   y2="34"
   id="line979"
   style="fill:#000000;fill-opacity:0;stroke:#abacae;stroke-width:0.8938;stroke-miterlimit:10" />
		<line
   class="st9"
   x1="27.5"
   y1="25"
   x2="27.5"
   y2="38"
   id="line981"
   style="fill:#000000;fill-opacity:0;stroke:#3e6ede;stroke-width:1.095;stroke-miterlimit:10;stroke-dasharray:none;stroke-opacity:1" />
	</g>
	<g
   id="g1003"
   style="display:inline"
   sodipodi:insensitive="true">
		
			<radialGradient
   id="SVGID_7_"
   cx="32.1115"
   cy="54.937302"
   r="14.6977"
   gradientTransform="matrix(1.0041,0,0,0.757,0.2027,12.8951)"
   gradientUnits="userSpaceOnUse">
			<stop
   offset="0"
   style="stop-color:#FAFAFA"
   id="stop985" />
			<stop
   offset="1"
   style="stop-color:#D4D4D4"
   id="stop987" />
		</radialGradient>
		
		
		
			<radialGradient
   id="SVGID_8_"
   cx="31.729601"
   cy="51.589199"
   r="12.5562"
   gradientTransform="matrix(0.9834,0,0,0.5716,0.8694,22.611)"
   gradientUnits="userSpaceOnUse">
			<stop
   offset="0"
   style="stop-color:#7E8087"
   id="stop994" />
			<stop
   offset="1"
   style="stop-color:#FAFAFA"
   id="stop996" />
		</radialGradient>
		<circle
   class="st12"
   cx="32"
   cy="49"
   r="6"
   id="circle999"
   style="fill:#b3b3b3;fill-opacity:1;stroke:#abacae;stroke-width:0;stroke-linecap:round;stroke-linejoin:round;stroke-dasharray:none"
   sodipodi:insensitive="true" />
		<path
   class="st13"
   d="m 32,47.74995 c -0.149984,0 -0.3,-0.149984 -0.3,-0.3 v -3.45 c 0,-0.149986 0.150007,-0.3 0.3,-0.3 0.149984,0 0.3,0.149984 0.3,0.3 v 3.45 c 0,0.149984 -0.149984,0.3 -0.3,0.3 z"
   id="path1001"
   inkscape:connector-curvature="0"
   style="fill:#d4d4d4;stroke:#abacae;stroke-width:0;stroke-dasharray:none"
   sodipodi:insensitive="true" />
	</g>
	<g
   id="g1038"
   style="display:inline"
   sodipodi:insensitive="true">
		<g
   id="g1014">
			<linearGradient
   id="SVGID_9_"
   gradientUnits="userSpaceOnUse"
   x1="50.014"
   y1="47"
   x2="50.014"
   y2="43.083302">
				<stop
   offset="0"
   style="stop-color:#DE3E80"
   id="stop1005" />
				<stop
   offset="1"
   style="stop-color:#910E38"
   id="stop1007" />
			</linearGradient>
			
			<path
   class="st15"
   d="M 55,46 H 45 c -0.5,0 -1,-0.4 -1,-1 v 0 c 0,-0.5 0.4,-1 1,-1 h 10 c 0.5,0 1,0.4 1,1 v 0 c 0,0.6 -0.4,1 -1,1 z"
   id="path1012"
   inkscape:connector-curvature="0"
   style="fill:#b3b3b3" />
		</g>
		<g
   id="g1025">
			<linearGradient
   id="SVGID_10_"
   gradientUnits="userSpaceOnUse"
   x1="50.474701"
   y1="50.958302"
   x2="50.474701"
   y2="47.083302">
				<stop
   offset="0"
   style="stop-color:#DE3E80"
   id="stop1016" />
				<stop
   offset="1"
   style="stop-color:#910E38"
   id="stop1018" />
			</linearGradient>
			
			<path
   class="st15"
   d="m 55.1,50.1 h -9.2 c -0.5,0 -1,-0.4 -1,-1 V 49 c 0,-0.5 0.4,-1 1,-1 h 9.2 c 0.5,0 1,0.4 1,1 v 0.1 c -0.1,0.5 -0.5,1 -1,1 z"
   id="path1023"
   inkscape:connector-curvature="0"
   style="fill:#b3b3b3" />
		</g>
		<g
   id="g1036">
			<linearGradient
   id="SVGID_11_"
   gradientUnits="userSpaceOnUse"
   x1="50.014"
   y1="55"
   x2="50.014"
   y2="50.958302">
				<stop
   offset="0"
   style="stop-color:#DE3E80"
   id="stop1027" />
				<stop
   offset="1"
   style="stop-color:#910E38"
   id="stop1029" />
			</linearGradient>
			
			<path
   class="st15"
   d="M 55.1,54 H 44.9 c -0.5,0 -1,-0.4 -1,-1 v 0 c 0,-0.5 0.4,-1 1,-1 H 55 c 0.5,0 1,0.4 1,1 v 0 c 0,0.6 -0.4,1 -0.9,1 z"
   id="path1034"
   inkscape:connector-curvature="0"
   style="fill:#b3b3b3" />
		</g>
	</g>
	<g
   id="g1073"
   style="display:inline"
   sodipodi:insensitive="true">
		<g
   id="g1049">
			
				<linearGradient
   id="SVGID_12_"
   gradientUnits="userSpaceOnUse"
   x1="86.035797"
   y1="47"
   x2="86.035797"
   y2="43.083302"
   gradientTransform="matrix(-1,0,0,1,100.028,0)">
				<stop
   offset="0"
   style="stop-color:#DE3E80"
   id="stop1040" />
				<stop
   offset="1"
   style="stop-color:#910E38"
   id="stop1042" />
			</linearGradient>
			
			<path
   class="st15"
   d="m 9,46 h 10 c 0.5,0 1,-0.4 1,-1 v 0 c 0,-0.5 -0.4,-1 -1,-1 H 9 c -0.5,0 -1,0.4 -1,1 v 0 c 0,0.6 0.4,1 1,1 z"
   id="path1047"
   inkscape:connector-curvature="0"
   style="fill:#b3b3b3" />
		</g>
		<g
   id="g1060">
			
				<linearGradient
   id="SVGID_13_"
   gradientUnits="userSpaceOnUse"
   x1="86.496498"
   y1="50.958302"
   x2="86.496498"
   y2="47.083302"
   gradientTransform="matrix(-1,0,0,1,100.028,0)">
				<stop
   offset="0"
   style="stop-color:#DE3E80"
   id="stop1051" />
				<stop
   offset="1"
   style="stop-color:#910E38"
   id="stop1053" />
			</linearGradient>
			
			<path
   class="st15"
   d="m 8.9,50.1 h 9.2 c 0.5,0 1,-0.4 1,-1 V 49 c 0,-0.5 -0.4,-1 -1,-1 H 8.9 c -0.5,0 -1,0.4 -1,1 v 0.1 c 0.1,0.5 0.5,1 1,1 z"
   id="path1058"
   inkscape:connector-curvature="0"
   style="fill:#b3b3b3" />
		</g>
		<g
   id="g1071">
			
				<linearGradient
   id="SVGID_14_"
   gradientUnits="userSpaceOnUse"
   x1="86.035797"
   y1="55"
   x2="86.035797"
   y2="50.958302"
   gradientTransform="matrix(-1,0,0,1,100.028,0)">
				<stop
   offset="0"
   style="stop-color:#DE3E80"
   id="stop1062" />
				<stop
   offset="1"
   style="stop-color:#910E38"
   id="stop1064" />
			</linearGradient>
			
			<path
   class="st15"
   d="M 8.9,54 H 19 c 0.5,0 1,-0.4 1,-1 v 0 c 0,-0.5 -0.4,-1 -1,-1 H 8.9 c -0.5,0 -1,0.4 -1,1 v 0 c 0.1,0.6 0.5,1 1,1 z"
   id="path1069"
   inkscape:connector-curvature="0"
   style="fill:#b3b3b3" />
		</g>
	</g>
</g>
</svg>
